<?xml version="1.0" encoding="utf-8"?>
<svg version="1.1" xmlns:xlink="http://www.w3.org/1999/xlink" width="18px" height="18px" xmlns="http://www.w3.org/2000/svg">
  <g transform="matrix(1 0 0 1 -261 -214 )">
    <path d="M 8.823246220697873 13.871284597857837  C 8.495087494669805 13.871284597857837  8.229062285456845 13.603929262598813  8.229062285456845 13.274129742940604  L 8.229062285456845 8.145142142161637  L 6.194185789649611 8.145142142161637  L 6.194185789649611 12.64425407789679  C 6.194185789649611 12.870144155529227  6.011976750840263 13.053264247379625  5.787210504439827 13.053264257059396  L 5.380235201790466 13.053264257059396  C 5.1554689485794505 13.053264257059396  4.973259899141102 12.870144162373858  4.973259899141102 12.644254077896788  L 4.973259899141102 7.907916251217137  C 4.973259899141102 7.361262249299369  5.414205796751833 6.918111622200584  5.958140127018269 6.918111622200584  L 8.229062285456845 6.918111622200584  L 8.229062285456845 6.100091263875364  L 4.566284596491739 6.100091263875366  C 4.341518350091302 6.100091263875366  4.1593093034739885 5.91697117987197  4.159309293842376 5.691081102239532  L 4.159309293842376 5.282070923076923  C 4.159309293842376 5.056180838599854  4.341518343280724 4.873060743914313  4.566284596491739 4.873060743914313  L 8.636037588106207 4.873060743914313  L 8.111039445421383 4.079581010710808  C 8.060685427658257 4.003663781399322  8.033815640537338 3.9144668224581314  8.033815640537338 3.8232288288893956  C 8.033815640537338 3.647327692946096  8.133167933967757 3.486675494454163  8.290108590446017 3.4088043154819867  L 8.636037588106205 3.2370200447906523  L 9.04301289075557 3.2370200447906523  L 9.771498676045285 4.607204126582278  L 9.832544963594877 4.680825966893866  L 9.832544963594877 4.868970642648491  L 13.495322652559985 4.868970642648492  C 13.720088905770998 4.868970642648492  13.902297955209347 5.052090737334031  13.902297955209347 5.2779808218111  L 13.902297955209347 5.686991000973711  C 13.902297945577732 5.912881078606148  13.72008889896042 6.096001162609542  13.495322652559985 6.096001162609542  L 9.856963478614716 6.096001162609542  L 9.856963478614716 6.914021520934762  L 12.233699237018413 6.914021520934762  C 12.71919433933103 6.914021520934762  13.112765882370038 7.309560921688964  13.11276588237004 7.797483499513145  L 13.11276588237004 11.719891086660175  C 13.11276588237004 12.454033853950826  12.520586477551383 13.049174155793573  11.790096161839296 13.049174155793573  L 10.670914083913443 13.049174155793573  L 10.365682611286315 12.01846851411879  L 11.077889386562806 11.826233719571567  L 11.89183997442195 11.826233719571567  L 11.89183997442195 8.145142142161633  L 9.856963478614716 8.145142142161633  L 9.856963478614716 13.274129742940602  C 9.856963478614716 13.603929262598813  9.590938269401756 13.871284597857837  9.262779543373687 13.871284597857837  L 8.823246220697873 13.871284597857837  Z M 1.9250149079335552 10.693275546251217  C 1.7871698146965156 10.121447938044819  1.7174945454369235 9.535171511335415  1.7174575128253573 8.946802095423564  L 0.08955631966748537 8.946802095423564  C 0.08876893700289595 9.666038658210018  0.1734773234492749 10.38279460416938  0.3418809923120522 11.081835201557936  L 1.9250149079335552 10.693275546251217  Z M 17.99646946184366 8.926351589094452  L 16.368568268685785 8.963162500486854  C 16.368448544127958 9.544539888138488  16.30014820048881 10.12387708389734  16.165080626080893 10.689185444985396  L 17.748214524262817 11.069564897760468  C 17.912972468954393 10.37966233052887  17.99629818888554 9.672657273840498  17.99646946184366 8.963162500486856  L 17.99646946184366 8.926351589094452  Z M 4.879655574125478 2.8893614021421605  L 3.955821651237483 1.5559882142161634  C 3.3575075453686636 1.966725419311699  2.8108938985805882 2.4487771637885936  2.327920458079612 2.9916139337877308  L 3.5488463485881203 4.075490909444985  C 3.9430052088932923 3.6273984582160828  4.389883576715901 3.229102738530419  4.879655574125478 2.8893614021421605  Z M 2.5314081006845033 12.366127156767282  L 1.1029247976282173 13.114615776046739  C 1.4370148396111944 13.756254007696368  1.846955645714509 14.355013542735254  2.3238507055763056 14.897900138266797  L 3.544776596084815 13.818113281402145  C 3.1501887334109986 13.376776617821271  2.809947434403286 12.889268226323683  2.5314081006845033 12.366127156767282  Z M 15.5179898908573 5.507026510223953  C 15.794513673405682 6.032784961075199  16.00634151743827 6.5904115197177795  16.14880159862809 7.167607834469329  L 17.727865761746283 6.758597655306719  C 17.552341597476097 6.056153566322674  17.292694833574107 5.377696566361545  16.9546126989202 4.738087384615384  L 15.5179898908573 5.507026510223953  Z M 1.9290846604368619 7.228959353456668  C 2.0677160326665733 6.640709500757793  2.2782288497545635 6.071955812254513  2.555826615704341 5.535657236611489  L 1.1151340725777152 4.774898296007789  C 0.7780931887597194 5.422685098879301  0.5211479191977283 6.1094669913732895  0.35002049731866464 6.8199491742940594  L 1.9290846604368619 7.228959353456668  Z M 4.8593068116089455 15.020603193768261  L 3.931403136217645 16.34988626290166  C 4.523322107339084 16.76385364484724  5.162836946112131 17.104436291688714  5.836047534479501 17.364231499513146  L 6.418022212210612 15.838623552093479  C 5.867653305014256 15.629837808701673  5.344312086367954 15.355186149368514  4.8593068116089455 15.020603193768261  Z M 8.147667235390719 1.6623308646543327  L 7.952319080352861 0.026290165530671462  C 7.2367052634783535 0.11381895046517948  6.534293668761733 0.28823977834017245  5.860466049499339 0.5457330963972732  L 6.438370974727144 2.0713410438169424  C 6.989629493156657 1.866194637898483  7.563568615737137 1.7288592041545745  8.147667235390719 1.6623308646543327  Z M 15.729617055908385 2.9752535287244393  C 15.248625024018276 2.4346700266850387  14.704815976149497 1.954054867507133  14.109855367757127 1.5437179104186949  L 13.18602142742955 2.889361402142162  C 13.672192910629537 3.225877502337346  14.116278844020451 3.6200003524839497  14.508691147960295 4.063220605647517  L 15.729617055908385 2.9752535287244393  Z M 15.554617663387058 12.34567665043817  C 15.281934003252237 12.872211020160512  14.947161704319202 13.363834396528954  14.55752819543955 13.809933078870497  L 15.778454085948063 14.885629834469327  C 16.25536974755415 14.341272753088818  16.665298184139537 13.741158016309626  16.99937997645657 13.098255370983447  L 15.554617663387058 12.34567665043817  Z M 13.242997979915422 14.991972484907496  C 12.76051959536623 15.33376654609516  12.23847220571243 15.615323649946435  11.68835233181706 15.83044334956183  L 12.278466514554783 17.3560512969815  C 12.950657238500973 17.093383287409644  13.58880660546459 16.750053461796316  14.179041160313332 16.333525857838364  L 13.242997979915422 14.991972484907496  Z M 12.201141199552385 0.5416429951314506  C 11.525821610377282 0.28526441929271684  10.822033864097564 0.11221462501417465  10.105218416195557 0.026290165530671462  L 9.913940031100582 1.6623308646543327  C 10.499431838358923 1.728454612668806  11.074765974463475 1.8657968479402653  11.627306044267463 2.0713410438169424  L 12.201141199552385 0.5416429951314506  Z M 9.962777061140256 16.268084237585207  C 9.657648501756471 16.30611986783403  9.350479599869594 16.325243168532566  9.043012890755573 16.32534565530672  C 8.7369040954415 16.32507569809604  8.431099444029842 16.305952716079638  8.127318472874189 16.268084237585203  L 7.927900565333025 17.904124936708868  C 8.669804511085744 17.99690467364449  9.420291005489126 17.99690467364449  10.162194951241842 17.904124936708865  L 9.962777061140256 16.268084237585207  Z " fill-rule="nonzero" fill="#2f9bf8" stroke="none" transform="matrix(1 0 0 1 261 214 )" />
  </g>
</svg>