<?xml version="1.0" encoding="utf-8"?>
<svg version="1.1" xmlns:xlink="http://www.w3.org/1999/xlink" width="18px" height="18px" xmlns="http://www.w3.org/2000/svg">
  <g transform="matrix(1 0 0 1 -261 -248 )">
    <path d="M 12.764038219262295 13.749912244614638  C 12.755544395332848 13.749912244614638  12.747051353733221 13.749748403594703  12.738563786713947 13.749420812074002  C 12.670830773955105 13.755634878042743  12.602675308098114 13.755634878042741  12.534942295339274 13.749420812074002  L 12.355755398276388 13.71667847906524  L 12.262089511546453 13.532502847127558  C 12.152133906901714 13.364698381694257  12.046250740455461 13.209172299902631  11.9362951532503 13.061831801363198  C 9.6801691697307 13.299213715676732  7.375174032466681 13.442461431353461  5.07017889520266 13.491574930866603  C 4.790227776781436 13.52984882613353  4.5123487869316925 13.408359190839219  4.3493588513130526 13.176429966893869  C 4.2324085637435305 12.9280513578304  4.281099941033097 12.632811230286592  4.471531753113689 12.43563467380721  L 4.5774149195599385 12.288294157740998  L 4.764746675580227 12.304665324245379  C 4.866557421267565 12.304665324245379  5.2860176662936516 12.157324825705944  6.6624988475344775 11.03589990262902  L 4.10908552078943 11.03589990262902  L 3.999129916144688 10.958136852969819  C 3.7984541529929876 10.855460112128801  3.6720866511362487 10.648292849710625  3.6720866511362487 10.421981141187926  C 3.6720866511362487 10.195669432665227  3.7984541529929894 9.988502170247056  3.9991299161446885 9.885825429406038  L 4.10908552078943 9.808062379746836  L 5.294162525251057 9.808062379746836  L 5.294162525251057 4.896712305744889  C 5.29416253488267 4.218596380276305  5.841149171904612 3.6688748100692563  6.515891386301211 3.668874800389484  L 11.443531177607582 3.668874800389484  C 11.800205902423063 3.643702638414426  12.149951487562276 3.776821760798654  12.400552131261902 4.033133263875366  C 12.594816095390335 4.2913259708891305  12.675724591791187 4.618056567525774  12.624535743870716 4.9376402395326195  L 12.624535743870716 9.78759841285297  L 13.650788007382756 9.78759841285297  L 13.760743594587916 9.86536146251217  C 13.961419367183211 9.968038200031943  14.087786876723895 10.175205467583789  14.087786876723895 10.40151718305745  C 14.087786876723895 10.627828898531114  13.961419367183211 10.834996166082957  13.760743594587916 10.937672903602726  L 13.650788007382756 11.015435935735153  L 12.021816181022832 11.015435935735153  C 12.50870222262569 11.596826218331646  12.957609056710378 12.209298388487511  13.36571792643404 12.849006636806234  L 13.426804377334362 12.939048052580334  L 13.42680437733436 13.045460634858815  C 13.427497478653638 13.057890635099955  13.427844233010497 13.070337698344277  13.427844233010497 13.082787200797695  C 13.427844233010497 13.451230188727992  13.130648157501398 13.749912244614638  12.764038219262295 13.749912244614638  Z M 10.673841979973554 10.994971986368062  L 8.552106177970904 11.01543593573515  C 8.009115569184264 11.539313275559882  7.54214364400006 11.967692144109053  7.151190402418289 12.300572541382667  C 8.324050127163597 12.239180658227848  9.594648141958174 12.14913924245375  10.983346637794476 12.022262693281403  C 10.893753183449842 11.902207472249271  10.798729823133604 11.783516512171376  10.698276556845762 11.666189813047714  L 10.588320969640602 11.55159164751704  L 10.588320969640602 11.404251148977602  C 10.582349179319907 11.262786026482475  10.611751967871012 11.122072666926377  10.673841979973554 10.994971986368062  Z M 6.515891386301211 9.78759841285297  L 11.402806882820562 9.78759841285297  L 11.402806882820562 8.969040070107107  L 6.515891386301211 8.969040070107107  L 6.515891386301211 9.78759841285297  Z M 6.515891386301211 7.741202564751704  L 11.402806882820562 7.741202564751704  L 11.402806882820562 6.922644222005843  L 6.515891386301211 6.922644222005843  L 6.515891386301211 7.741202564751704  Z M 6.51589138630121 5.682528333008764  L 11.402806882820562 5.694806699123663  L 11.402806882820562 4.982660938656281  L 11.341720431920242 4.93764023953262  C 11.341720431920242 4.93764023953262  11.296923698934734 4.93764023953262  11.264344280544696 4.863969972736125  L 6.654353988577076 4.863969972736125  C 6.6217745527474605 4.933547439143136  6.597339975875249 4.937640222005843  6.585122696158932 4.93764023953262  C 6.572905416442615 4.937640257059397  6.585122696158932 4.970382572541383  6.51589138630121 5.003124905550147  L 6.51589138630121 5.682528333008764  Z M 8.959349125841097 16.323786806231745  L 8.959349125841097 17.973181857838366  C 8.586328499594698 17.973146423523936  8.21366759364169 17.949909523243733  7.843503431237193 17.90360440895813  L 8.043052484413378 16.26648772346641  C 8.347031348386242 16.304401566634752  8.65303836849817 16.323537205443653  8.959349125841097 16.323786806231745  Z M 6.332632051039835 15.836744593963001  L 5.746202206106759 17.375634280428436  C 5.072548858948923 17.115668208666666  4.432613422814105 16.77486156500824  3.8403051577555263 16.360621922103217  L 4.772891534537633 15.018186233690363  C 5.258215780900589 15.35298923868995  5.78190118381917 15.62782153302123  6.332632051039835 15.836744593963001  Z M 12.217292796000525 17.367448697176243  L 12.196930639887226 17.375634280428436  L 11.606428356755657 15.840837376825707  C 12.155876750809377 15.631906813425404  12.678213075289644 15.357064925690834  13.162096452498947 15.022279034079844  L 14.098755250039964 16.364714722492696  C 13.513499711926421 16.77294738503399  12.881884575870803 17.10956954535804  12.217292796000525 17.367448697176243  Z M 3.4412070688427385 13.835369427458618  L 2.2357679082678135 14.919959234664072  C 1.7588091549635527 14.376519489068322  1.3486203618629835 13.777397743200927  1.014039029778081 13.135502050632912  L 2.443461820401401 12.374242790652387  C 2.716739462703342 12.899612305411926  3.0517120466253846 13.3901557239177  3.4412070688427385 13.835369427458618  Z M 15.703292516967258 14.8954024849075  L 15.703292516967258 14.919959234664072  L 14.481563638477526 13.839462227848099  C 14.871647736900947 13.3866694518147  15.205334849930866 12.887759346922168  15.47523644872037 12.35377882375852  L 16.916876519060008 13.123223666991237  C 16.584273182700198 13.760569311195958  16.176837821956326 14.355541158826803  15.703292516967258 14.8954024849075  Z M 1.8366698019154473 10.733033304771178  L 0.25249470854103384 11.10547735150925  C 0.08413335773674346 10.405949358043582  -0.0006285562767817585 9.688740506349685  0 8.969040070107107  L 1.6289759072214394 8.969040070107107  C 1.6279108928899628 9.563260899805815  1.6976383805003321 10.155472898122017  1.8366698019154473 10.733033304771178  Z M 17.918694188260258 8.969040070107107  C 17.918334245740205 9.678990247525677  17.834956340651797 10.386438149113207  17.67027599877923 11.07682781888997  L 16.086100887965237 10.696198188899709  C 16.221294636565776 10.130524740351085  16.289640425795454 9.550802069298426  16.289722361900335 8.969040070107106  L 17.918694188260258 8.932204954235637  L 17.918694188260258 8.969040070107107  Z M 2.4678963972736123 5.502445483933789  C 2.1901160571399414 6.0390967777533575  1.9794647878443175 6.608224530340401  1.8407422401139388 7.1968612697176235  L 0.2606395674984377 6.7875820895813055  C 0.4317622721457167 6.076596373816251  0.6888817987975779 5.389348700841416  1.0262563269339766 4.741186223953263  L 2.4678963972736123 5.502445483933789  Z M 17.64991384266593 6.7957676728334935  L 16.069811170050432 7.1763973028237595  C 15.925425786542554 6.607246518689878  15.713497111232781 6.0575992404846  15.438584592131845 5.539280617332036  L 16.87615222427299 4.773928556962025  C 17.214420186624853 5.413975128492592  17.47423597186239 6.092873777672361  17.64991384266593 6.7957676728334935  Z M 4.793253673211352 2.891244373904576  C 4.307313583580097 3.233396677004847  3.8642816561098936 3.633294527300688  3.4737865046723537 4.082246763388509  L 2.252057626182622 2.9976569561830573  C 2.7355733266344866 2.4546910890468747  3.282517516885889 1.9723478459671642  3.881029452542546 1.561087069133398  L 4.793253673211352 2.891244373904576  Z M 15.658495783981747 2.973100206426485  L 14.432694484733101 4.082246763388509  C 14.039527931282347 3.632931326502689  13.593756966084483 3.233029648344277  13.10508243979712 2.891244373904576  L 14.029523957621825 1.5406231022395322  C 14.627684409781434 1.9507682735663168  15.174600853154177 2.4317129224283462  15.658495783981747 2.973100206426485  Z M 8.063414623087098 1.6634068510223952  C 7.478945638085876 1.730058042663033  6.904638437775152 1.867481554391411  6.3529942071531345 2.0726860311587143  L 5.774709203737882 0.5501675111976627  C 6.448803363116424 0.29110723141402584  7.151681622743146 0.11519621957849051  7.867938008109404 0.026290165530671462  L 8.063414623087098 1.6634068510223952  Z M 12.119554488511682 0.5378891275559878  L 11.54534190585534 2.0726860311587143  C 10.99240352299991 1.8671226641548744  10.416705221481395 1.729693493376964  9.830849069162467 1.663406851022395  L 10.022253245941668 0.026290165530671462  C 10.73941108803404 0.11071163625184416  11.443685568478596 0.28250674410904364  12.119554488511682 0.5378891275559878  Z M 10.075194837884577 17.915882775073033  C 9.704777461248703 17.958084737286388  9.332117430156478 17.977220965292123  8.959349125841097 17.973181857838366  L 8.959349125841097 16.336065172346643  C 9.265659889002984 16.335815572275376  9.571666914960867 16.31667993346511  9.875645784708395 16.278766089581307  L 10.075194837884577 17.915882775073033  Z " fill-rule="nonzero" fill="#ffffff" stroke="none" transform="matrix(1 0 0 1 261 248 )" />
  </g>
</svg>