<?xml version="1.0" encoding="utf-8"?>
<svg version="1.1" xmlns:xlink="http://www.w3.org/1999/xlink" width="17px" height="17px" xmlns="http://www.w3.org/2000/svg">
  <g transform="matrix(1 0 0 1 -261 -112 )">
    <path d="M 15.681999999999789 16.055555555555554  L 12.196999999999207 16.055555555555554  L 12.196999999999207 14.505722222222225  L 15.396999999999025 14.505722222222225  L 15.396999999999025 11.79422222222222  L 16.99699999999939 11.79422222222222  L 16.99699999999939 15.005333333333333  C 16.909064741083967 15.62229003470873  16.340779492868933 16.07614995580068  15.681999999999789 16.055555555555554  Z M 5.3969999999999345 16.055555555555554  L 2.2239999999992506 16.055555555555554  C 1.9119962951790512 16.061376181406455  1.6095287190928502 15.953871926552884  1.378999999998996 15.755222222222224  C 1.153605398218133 15.561048087748736  1.0166805235821812 15.291917825865298  0.9969999999993888 15.004388888888888  L 0.9969999999993888 11.79327777777778  L 2.5969999999997526 11.79327777777778  L 2.5969999999997526 14.504777777777777  L 5.3969999999999345 14.504777777777777  L 5.3969999999999345 16.055555555555554  Z M 13.534999999998945 12.710333333333333  L 4.534999999998945 12.710333333333333  L 4.534999999998945 4.210333333333332  L 13.534999999998945 4.210333333333332  L 13.534999999998945 12.710333333333333  Z M 16.99699999999939 5.20672222222222  L 15.396999999999025 5.20672222222222  L 15.396999999999025 2.4933333333333336  L 12.196999999999207 2.4933333333333336  L 12.196999999999207 0.9444444444444444  L 15.68199999999888 0.9444444444444444  C 16.00516820532448 0.932256519939959  16.321729531911842 1.0331478313756555  16.570999999999003 1.2277777777777783  C 16.807596182757152 1.4127896165004439  16.960063419977814 1.676445793541038  16.99699999999939 1.9644444444444447  L 16.99699999999939 5.20672222222222  Z M 2.596999999998843 5.20672222222222  L 0.9969999999993888 5.20672222222222  L 0.9969999999993888 1.9682222222222219  C 1.0455204260615574 1.3693310389669329  1.5897600392627282 0.9156010538024857  2.2249999999994543 0.9444444444444444  L 5.396999999999025 0.9444444444444444  L 5.396999999999025 2.4933333333333336  L 2.596999999998843 2.4933333333333336  L 2.596999999998843 5.20672222222222  Z " fill-rule="nonzero" fill="#2f9bf8" stroke="none" transform="matrix(1 0 0 1 261 112 )" />
  </g>
</svg>