<?xml version="1.0" encoding="utf-8"?>
<svg version="1.1" xmlns:xlink="http://www.w3.org/1999/xlink" width="18px" height="18px" xmlns="http://www.w3.org/2000/svg">
  <g transform="matrix(1 0 0 1 -261 -146 )">
    <path d="M 17.891015624999998 9.179296875  C 18.007031249999997 9.087890625  18.007031249999997 8.912109375000002  17.8927734375 8.8189453125  L 14.92734375 6.416015625  C 14.776171875000001 6.29296875  14.5494140625 6.4001953125  14.5494140625 6.5970703125000005  L 14.5494140625 8.258203125  L 9.741796875 8.258203125  L 9.741796875 3.4523437500000003  L 11.4029296875 3.4523437500000003  C 11.598046875 3.4523437500000003  11.70703125 3.2255859375  11.583984375 3.0744140625000003  L 9.1810546875 0.1072265625  C 9.087890625 -0.007031250000000006  8.913867187500001 -0.007031250000000006  8.820703125 0.1072265625  L 6.416015625 3.07265625  C 6.29296875 3.2238281250000003  6.4001953125 3.4505859375  6.5970703125000005 3.4505859375  L 8.258203125 3.4505859375  L 8.258203125 8.2564453125  L 3.4523437500000003 8.2564453125  L 3.4523437500000003 6.5953124999999995  C 3.4523437500000003 6.4001953125  3.2255859375 6.2912109375  3.07265625 6.4142578125  L 0.1072265625 8.8189453125  C -0.007031250000000006 8.912109375  -0.007031250000000006 9.086132812499999  0.1072265625 9.179296875  L 3.07265625 11.583984375  C 3.2238281250000003 11.70703125  3.4523437500000003 11.599804687499999  3.4523437500000003 11.4029296875  L 3.4523437500000003 9.741796875  L 8.258203125 9.741796875  L 8.258203125 14.547656250000001  L 6.5970703125 14.547656250000001  C 6.401953124999999 14.547656250000001  6.292968749999999 14.7744140625  6.416015624999999 14.925585937500001  L 8.820703125 17.891015624999998  C 8.913867187500001 18.005273437499998  9.087890625 18.005273437499998  9.1810546875 17.891015624999998  L 11.583984375 14.92734375  C 11.70703125 14.776171875000001  11.598046875 14.5494140625  11.4029296875 14.5494140625  L 9.741796875 14.5494140625  L 9.741796875 9.741796875  L 14.547656250000001 9.741796875  L 14.547656250000001 11.4029296875  C 14.547656250000001 11.598046875  14.7744140625 11.70703125  14.925585937500001 11.583984375  L 17.891015624999998 9.179296875  Z " fill-rule="nonzero" fill="#2f9bf8" stroke="none" transform="matrix(1 0 0 1 261 146 )" />
  </g>
</svg>