<?xml version="1.0" encoding="utf-8"?>
<svg version="1.1" xmlns:xlink="http://www.w3.org/1999/xlink" width="18px" height="16px" xmlns="http://www.w3.org/2000/svg">
  <g transform="matrix(1 0 0 1 -261 -181 )">
    <path d="M 17.897048780487804 8.388888888888891  C 18.034291049781793 8.14824360696561  18.034291049781793 7.8517563930343925  17.897048780487804 7.611111111111111  L 13.781195121951217 0.39422222222222203  C 13.643956339187321 0.15358305349280835  13.39033122415295 0.0053403922375810315  13.115853658536585 0.005333333333332746  L 4.884146341463415 0.005333333333333535  C 4.609668775847051 0.005340392237578663  4.356043660812677 0.15358305349280915  4.218804878048781 0.39422222222222203  L 0.10295121951219499 7.611111111111111  C -0.034291049781794314 7.851756393034391  -0.034291049781793925 8.148243606965607  0.10295121951219499 8.388888888888888  L 4.218804878048781 15.605777777777778  C 4.356043660812677 15.84641694650719  4.609668775847052 15.99465960776242  4.884146341463415 15.994666666666667  L 13.115853658536585 15.994666666666667  C 13.390331224152945 15.99465960776242  13.643956339187323 15.84641694650719  13.781195121951217 15.605777777777778  L 17.897048780487804 8.388888888888891  Z M 12.672329268292682 1.5608888888888883  L 16.344548780487802 8  L 12.672329268292682 14.439  L 5.327780487804878 14.439  L 1.6555609756097565 8  L 5.327780487804878 1.5608888888888883  L 12.672329268292682 1.5608888888888883  Z " fill-rule="nonzero" fill="#2f9bf8" stroke="none" transform="matrix(1 0 0 1 261 181 )" />
  </g>
</svg>