<?xml version="1.0" encoding="utf-8"?>
<svg version="1.1" xmlns:xlink="http://www.w3.org/1999/xlink" width="18px" height="16px" xmlns="http://www.w3.org/2000/svg">
  <g transform="matrix(1 0 0 1 -261 -283 )">
    <path d="M 17.928571435546875 15.939166660156246  C 17.582542496910467 15.139637411832558  17.11199807116205 14.392141697072825  16.53214285714286 13.72083333984375  C 15.956537940731295 13.053376644038233  15.279783155634323 12.467778219801431  14.523214285714285 11.982499999999998  C 12.957587699566746 10.976448348891575  11.10080773073239 10.439283960087666  9.199999993024553 10.4425  C 9.086607128906248 10.4425  8.973214285714286 10.4425  8.859821421595983 10.448333339843751  L 8.859821421595983 14.561666660156254  C 8.860319371484985 14.651450520362014  8.840544691747297 14.740325042606518  8.801785714285716 14.8225  C 8.765699946025297 14.898462668979525  8.713452426897787 14.96678946248485  8.64821427873884 15.023333339843749  C 8.584373535427401 15.078920572595539  8.509851352685045 15.122745268638912  8.428571421595983 15.1525  C 8.3476117675165 15.182637450928402  8.261268446246836 15.198189349600081  8.174107135881698 15.198333339843751  C 8.088729891411647 15.19855836454623  8.004121620625021 15.183274289823483  7.924999993024555 15.15333333984375  C 7.839911286897059 15.12054269705143  7.762779307478586 15.072077089595425  7.698214285714286 15.010833339843748  L 0.2705357142857145 8.07833333984375  C 0.20621069921158217 8.018402421866904  0.15549720991303062 7.946978390483549  0.12142857840401826 7.868333339843749  C 0.08837547260931064 7.792371335090861  0.07139623121387714 7.711153981988787  0.07142856445312505 7.629166660156249  C 0.07139623391590393 7.547179344894724  0.08837547526122742 7.465961998664855  0.12142857840401826 7.389999999999999  C 0.15549720991303062 7.311354949360199  0.2062106992115818 7.239930917976848  0.2705357142857145 7.18  L 7.698214285714286 0.24749999999999908  C 7.762747820105921 0.18622086980073896  7.839888011382813 0.13775010245243244  7.924999993024555 0.10499999999999901  C 8.00412162062502 0.07505905002026551  8.088729891411647 0.05977497529751972  8.174107135881698 0.05999999999999872  C 8.261270527246442 0.06012385058673893  8.34761786535168 0.07567647275873277  8.428571421595983 0.10583333984374903  C 8.509851352685045 0.13558807120483643  8.584373535427401 0.17941276724820981  8.648214278738838 0.23499999999999838  C 8.713415024508105 0.29157455542195515  8.765656703491373 0.35989371146743243  8.801785714285716 0.4358333398437487  C 8.840544688868386 0.5180082912199697  8.860319368543037 0.6068828065262135  8.859821421595983 0.696666660156249  L 8.859821421595983 4.634999999999998  L 8.903571428571428 4.647499999999998  C 9.299107135881696 4.761666660156249  9.692857135881695 4.897499999999998  10.074107142857143 5.044166660156248  C 10.455357149832588 5.190833320312497  10.826785714285712 5.359166660156248  11.188392857142858 5.5441666601562485  C 11.550000000000002 5.72916666015625  11.902678564453126 5.923333320312499  12.240178564453126 6.1358333398437495  C 12.577678564453127 6.348333359374999  12.908035714285717 6.575833339843749  13.222321435546874 6.815833339843747  C 13.536607156808035 7.055833339843747  13.84196429966518 7.315833339843749  14.13035714983259 7.578333339843749  C 14.418750000000001 7.8408333398437495  14.696428585379465 8.1266666796875  14.956249993024553 8.4175  C 15.216071400669648 8.7083333203125  15.46517856445313 9.014999999999999  15.694642864118308 9.327499999999999  C 15.924107163783484 9.639999999999999  16.141071428571433 9.969166660156251  16.33928571428572 10.302499999999998  C 16.5375 10.635833339843746  16.720535721261164 10.984999999999996  16.883035714285718 11.335833339843749  C 17.045535707310272 11.6866666796875  17.194642864118308 12.05583333984375  17.320535721261162 12.419166660156247  C 17.44642857840402 12.782499980468748  17.557142871093752 13.169166660156247  17.644642864118307 13.55333333984375  C 17.732142857142865 13.937500019531251  17.802678578404024 14.334999999999999  17.849107135881702 14.728333339843749  C 17.897239847920325 15.13045292152087  17.923761178108908 15.534570373340813  17.928571435546875 15.939166660156246  Z M 7.58660714983259 2.00083333984375  L 1.5321428571428588 7.63083333984375  L 7.586607149832592 13.259999999999996  L 7.586607149832592 9.26083333984375  L 8.880357149832593 9.26083333984375  C 8.985714299665181 9.26083333984375  9.091964292689735 9.2566666796875  9.197321421595987 9.256666660156252  C 11.355277021567002 9.253717290699957  13.463039067149381 9.864121192789415  15.240178564453126 11.00666666015625  L 15.339285707310271 11.07083333984375  C 15.301785707310268 11.005  15.264285707310268 10.938333339843751  15.225000000000001 10.872499999999999  C 14.692681425586876 9.968414494352476  14.022267420260672 9.141420169971614  13.234821428571426 8.4175  C 12.448668194282366 7.6921758458912945  11.555760269659864 7.075137386465293  10.583035714285716 6.584999999999999  C 10.256532150202043 6.420645662577016  9.921607898056838 6.271300434514794  9.579464292689735 6.1375  C 9.351621525433389 6.048930687066944  9.121493272017052 5.965572459830073  8.889285707310268 5.8875  L 7.58660714983259 5.47083333984375  L 7.58660714983259 2.00083333984375  Z " fill-rule="nonzero" fill="#2f9bf8" stroke="none" transform="matrix(1 0 0 1 261 283 )" />
  </g>
</svg>