<?xml version="1.0" encoding="utf-8"?>
<svg version="1.1" xmlns:xlink="http://www.w3.org/1999/xlink" width="18px" height="16px" xmlns="http://www.w3.org/2000/svg">
  <g transform="matrix(1 0 0 1 -261 -317 )">
    <path d="M 0.07142856445312495 15.939166660156246  C 0.41745750308953467 15.139637411832558  0.8880019288379515 14.392141697072825  1.4678571428571416 13.72083333984375  C 2.0434620592687054 13.053376644038233  2.720216844365677 12.467778219801431  3.4767857142857137 11.982499999999998  C 5.042412300433254 10.976448348891575  6.89919226926761 10.439283960087666  8.800000006975447 10.4425  C 8.913392871093752 10.4425  9.026785714285714 10.4425  9.140178578404019 10.448333339843751  L 9.140178578404019 14.561666660156254  C 9.139680628515016 14.651450520362014  9.159455308252703 14.740325042606518  9.198214285714283 14.8225  C 9.234300053974703 14.898462668979525  9.286547573102213 14.96678946248485  9.351785721261159 15.023333339843749  C 9.415626464572599 15.078920572595539  9.490148647314955 15.122745268638912  9.571428578404017 15.1525  C 9.6523882324835 15.182637450928402  9.738731553753164 15.198189349600081  9.825892864118302 15.198333339843751  C 9.911270108588353 15.19855836454623  9.995878379374979 15.183274289823483  10.075000006975444 15.15333333984375  C 10.16008871310294 15.12054269705143  10.237220692521413 15.072077089595425  10.301785714285714 15.010833339843748  L 17.729464285714286 8.07833333984375  C 17.79378930078842 8.018402421866904  17.84450279008697 7.946978390483549  17.878571421595982 7.868333339843749  C 17.91162452739069 7.792371335090861  17.92860376878612 7.711153981988787  17.928571435546875 7.629166660156249  C 17.928603766084095 7.547179344894724  17.911624524738773 7.465961998664855  17.878571421595982 7.389999999999999  C 17.84450279008697 7.311354949360199  17.79378930078842 7.239930917976848  17.729464285714286 7.18  L 10.301785714285714 0.24749999999999908  C 10.23725217989408 0.18622086980073896  10.160111988617187 0.13775010245243244  10.075000006975444 0.10499999999999901  C 9.995878379374979 0.07505905002026551  9.911270108588353 0.05977497529751972  9.825892864118302 0.05999999999999872  C 9.738729472753556 0.06012385058673893  9.65238213464832 0.07567647275873277  9.571428578404017 0.10583333984374903  C 9.490148647314953 0.13558807120483643  9.415626464572599 0.17941276724820981  9.351785721261162 0.23499999999999838  C 9.286584975491893 0.29157455542195515  9.234343296508627 0.35989371146743243  9.198214285714283 0.4358333398437487  C 9.159455311131614 0.5180082912199697  9.139680631456962 0.6068828065262135  9.140178578404019 0.696666660156249  L 9.140178578404019 4.634999999999998  L 9.096428571428572 4.647499999999998  C 8.700892864118304 4.761666660156249  8.307142864118305 4.897499999999998  7.925892857142858 5.044166660156248  C 7.544642850167412 5.190833320312497  7.173214285714288 5.359166660156248  6.811607142857142 5.5441666601562485  C 6.4499999999999975 5.72916666015625  6.097321435546874 5.923333320312499  5.759821435546874 6.1358333398437495  C 5.4223214355468725 6.348333359374999  5.091964285714282 6.575833339843749  4.777678564453125 6.815833339843747  C 4.463392843191966 7.055833339843747  4.15803570033482 7.315833339843749  3.869642850167409 7.578333339843749  C 3.581249999999998 7.8408333398437495  3.303571414620534 8.1266666796875  3.043750006975446 8.4175  C 2.7839285993303524 8.7083333203125  2.5348214355468706 9.014999999999999  2.3053571358816924 9.327499999999999  C 2.075892836216516 9.639999999999999  1.8589285714285668 9.969166660156251  1.6607142857142818 10.302499999999998  C 1.4624999999999968 10.635833339843746  1.279464278738836 10.984999999999996  1.1169642857142807 11.335833339843749  C 0.9544642926897275 11.6866666796875  0.8053571358816918 12.05583333984375  0.6794642787388381 12.419166660156247  C 0.5535714215959784 12.782499980468748  0.44285712890624684 13.169166660156247  0.3553571358816934 13.55333333984375  C 0.2678571428571359 13.937500019531251  0.19732142159597665 14.334999999999999  0.15089286411829583 14.728333339843749  C 0.10276015207967659 15.13045292152087  0.07623882189109343 15.534570373340813  0.07142856445312495 15.939166660156246  Z M 10.413392850167408 2.00083333984375  L 16.46785714285714 7.63083333984375  L 10.413392850167408 13.259999999999996  L 10.413392850167408 9.26083333984375  L 9.119642850167406 9.26083333984375  C 9.014285700334817 9.26083333984375  8.908035707310265 9.2566666796875  8.802678578404013 9.256666660156252  C 6.644722978432998 9.253717290699957  4.536960932850619 9.864121192789415  2.7598214355468738 11.00666666015625  L 2.6607142926897285 11.07083333984375  C 2.698214292689732 11.005  2.735714292689732 10.938333339843751  2.774999999999998 10.872499999999999  C 3.3073185744131237 9.968414494352476  3.977732579739328 9.141420169971614  4.7651785714285735 8.4175  C 5.551331805717634 7.6921758458912945  6.444239730340136 7.075137386465293  7.416964285714284 6.584999999999999  C 7.743467849797957 6.420645662577016  8.078392101943162 6.271300434514794  8.420535707310265 6.1375  C 8.648378474566611 6.048930687066944  8.878506727982948 5.965572459830073  9.110714292689732 5.8875  L 10.413392850167408 5.47083333984375  L 10.413392850167408 2.00083333984375  Z " fill-rule="nonzero" fill="#ffffff" stroke="none" transform="matrix(1 0 0 1 261 317 )" />
  </g>
</svg>