<?xml version="1.0" encoding="utf-8"?>
<svg version="1.1" xmlns:xlink="http://www.w3.org/1999/xlink" width="11px" height="12px" xmlns="http://www.w3.org/2000/svg">
  <g transform="matrix(1 0 0 1 -318 -1035 )">
    <path d="M 3.3578181818181743 4.731692307692356  C 3.1356743400443183 4.903866335875591  3.0001710753900284 5.210404715364348  3.0001710753900284 5.540769230769229  C 3.0001710753900284 5.871133746173882  3.1356743400443183 6.177672125662866  3.3578181818181743 6.3498461538461015  L 9.039272727272703 10.917230769230628  C 9.285740490606315 11.113928393776177  9.595732476557657 11.130775553103149  9.854545454545416 10.961538461538339  C 10.10918392626661 10.799478488105706  10.270931428087408 10.47015124281188  10.273454545454513 10.108615384615405  L 10.273454545454513 0.9701538461538348  C 10.270931428087408 0.6086179879573592  10.10918392626661 0.2792907426635338  9.854545454545416 0.1172307692306731  C 9.595732476557714 -0.05200632233390934  9.285740490606202 -0.03515916300693789  9.039272727272703 0.16153846153838458  L 3.3578181818181743 4.731692307692356  Z M 2 10  C 2 10.559999999999945  1.5600000000000025 11  1 11  C 0.4399999999999977 11  0 10.559999999999945  0 10  L 0 1  C 0 0.44000000000005457  0.4399999999999977 0  1 0  C 1.5600000000000025 0  2 0.44000000000005457  2 1  L 2 10  Z " fill-rule="nonzero" fill="#509af9" stroke="none" transform="matrix(1 0 0 1 318 1035 )" />
  </g>
</svg>