<?xml version="1.0" encoding="utf-8"?>
<svg version="1.1" xmlns:xlink="http://www.w3.org/1999/xlink" width="11px" height="12px" xmlns="http://www.w3.org/2000/svg">
  <g transform="matrix(1 0 0 1 -353 -1035 )">
    <path d="M 7.642181818181826 4.731692307692356  C 7.864325659955681 4.903866335875591  7.999828924609972 5.210404715364348  7.999828924609972 5.540769230769229  C 7.999828924609972 5.871133746173882  7.864325659955681 6.177672125662866  7.642181818181826 6.3498461538461015  L 1.9607272727272969 10.917230769230628  C 1.7142595093936848 11.113928393776177  1.4042675234423423 11.130775553103149  1.1454545454545841 10.961538461538339  C 0.8908160737333896 10.799478488105706  0.7290685719125923 10.47015124281188  0.726545454545487 10.108615384615405  L 0.726545454545487 0.9701538461538348  C 0.7290685719125923 0.6086179879573592  0.8908160737333896 0.2792907426635338  1.1454545454545841 0.1172307692306731  C 1.4042675234422863 -0.05200632233390934  1.7142595093937985 -0.03515916300693789  1.9607272727272969 0.16153846153838458  L 7.642181818181826 4.731692307692356  Z M 9 10  C 9 10.559999999999945  9.439999999999998 11  10 11  C 10.560000000000002 11  11 10.559999999999945  11 10  L 11 1  C 11 0.44000000000005457  10.560000000000002 0  10 0  C 9.439999999999998 0  9 0.44000000000005457  9 1  L 9 10  Z " fill-rule="nonzero" fill="#509af9" stroke="none" transform="matrix(1 0 0 1 353 1035 )" />
  </g>
</svg>