<?xml version="1.0" encoding="utf-8"?>
<svg version="1.1" xmlns:xlink="http://www.w3.org/1999/xlink" width="8px" height="12px" xmlns="http://www.w3.org/2000/svg">
  <g transform="matrix(1 0 0 1 -281 -1034 )">
    <path d="M 7.606399999999944 6.349846153846093  L 7.606399999999944 6.347076923076901  L 1.3567999999999147 10.917230769230741  C 1.0858833611759895 11.113579936397942  0.7452824561695621 11.130422838293882  0.4608000000000122 10.961538461538435  C 0.18069768110671952 10.799478488105732  0.0027754291038035858 10.470151242811776  0 10.108615384615353  L 0 0.9701538461538085  C 0.0027754291038035858 0.6086179879573854  0.18069768110671952 0.27929074266348136  0.4608000000000122 0.11723076923072559  C 0.7452824561695621 -0.051653607524695666  1.0858833611759895 -0.03481070562878148  1.3568000000000058 0.16153846153841955  L 7.606399999999944 4.73169230769226  C 7.850758225951179 4.90386633587553  7.999811817070895 5.210404715364418  7.999811817070895 5.540769230769176  C 7.999811817070895 5.871133746173882  7.850758225951179 6.177672125662823  7.606399999999944 6.349846153846093  Z " fill-rule="nonzero" fill="#ffffff" stroke="none" transform="matrix(1 0 0 1 281 1034 )" />
  </g>
</svg>