<svg xmlns="http://www.w3.org/2000/svg" width="8" height="22" viewBox="0 0 8 22">
  <g id="组_48314" data-name="组 48314" transform="translate(-249.977 -561.256)">
    <path id="联合_583" data-name="联合 583" d="M-14840-3035.52v-12.74a.575.575,0,0,1,0-.082v-2.286a.578.578,0,0,1,0-.082v-2.411a.524.524,0,0,1,.286-.475l7.037-3.359a.466.466,0,0,1,.634.262.534.534,0,0,1-.247.683l-6.751,3.224v1.322l6.364-3.042a.468.468,0,0,1,.634.266.535.535,0,0,1-.247.683l-6.751,3.222v1.238l3.5-1.672a.468.468,0,0,1,.634.262.536.536,0,0,1-.243.686l-3.887,1.854v12.447a.5.5,0,0,1-.479.521A.5.5,0,0,1-14840-3035.52Z" transform="translate(15089.977 3618.255)"/>
  </g>
</svg>
