<svg xmlns="http://www.w3.org/2000/svg" width="8" height="22" viewBox="0 0 8 22">
  <g id="组_48315" data-name="组 48315" transform="translate(-275.688 -561.255)">
    <path id="联合_582" data-name="联合 582" d="M-14840-3035.52v-12.652a.388.388,0,0,1,0-.083v-2.374a.386.386,0,0,1,0-.082v-2.411a.525.525,0,0,1,.282-.474l7.041-3.359a.467.467,0,0,1,.634.262.533.533,0,0,1-.247.683l-6.751,3.224v1.322l6.364-3.042a.468.468,0,0,1,.634.266.534.534,0,0,1-.247.683l-6.751,3.222v1.323l6.364-3.038a.467.467,0,0,1,.634.266.534.534,0,0,1-.247.682l-6.751,3.223v12.358a.5.5,0,0,1-.479.521A.5.5,0,0,1-14840-3035.52Z" transform="translate(15115.688 3618.255)"/>
  </g>
</svg>
