<svg xmlns="http://www.w3.org/2000/svg" width="8" height="22" viewBox="0 0 8 22">
  <g id="组_48316" data-name="组 48316" transform="translate(-301.369 -561.256)">
    <path id="联合_581" data-name="联合 581" d="M-14840-3035.52v-10.211a.575.575,0,0,1,0-.082v-2.359a.585.585,0,0,1,0-.083v-2.374a.578.578,0,0,1,0-.082v-2.411a.524.524,0,0,1,.286-.475l7.037-3.359a.466.466,0,0,1,.634.262.534.534,0,0,1-.247.683l-6.751,3.224v1.322l6.364-3.042a.468.468,0,0,1,.634.266.535.535,0,0,1-.247.683l-6.751,3.222v1.323l6.364-3.038a.467.467,0,0,1,.634.266.535.535,0,0,1-.247.683l-6.751,3.222v1.311l6.364-3.041a.467.467,0,0,1,.634.266.535.535,0,0,1-.247.682l-6.751,3.222v9.917a.5.5,0,0,1-.479.521A.5.5,0,0,1-14840-3035.52Z" transform="translate(15141.369 3618.255)"/>
  </g>
</svg>
