<svg xmlns="http://www.w3.org/2000/svg" width="8" height="22" viewBox="0 0 8 22">
  <g id="组_48319" data-name="组 48319" transform="translate(-378.393 -561.256)">
    <path id="联合_579" data-name="联合 579" d="M-14840-3035.516v-18.641a.514.514,0,0,1,.34-.493l7.038-2.326a.468.468,0,0,1,.565.255.535.535,0,0,1-.126.644l-6.854,5.894v1.435l6.257-5.377a.46.46,0,0,1,.677.081.553.553,0,0,1-.074.729l-6.859,5.891v1.488l3.705-3.183a.463.463,0,0,1,.677.081.549.549,0,0,1-.079.729l-4.3,3.7v9.1a.5.5,0,0,1-.479.517A.5.5,0,0,1-14840-3035.516Zm.963-18.259v2.264l4.281-3.676Z" transform="translate(15218.393 3618.255)"/>
  </g>
</svg>
