<svg xmlns="http://www.w3.org/2000/svg" width="8" height="22" viewBox="0 0 8 22">
  <g id="组_48318" data-name="组 48318" transform="translate(-352.74 -561.256)">
    <path id="联合_580" data-name="联合 580" d="M-14840-3035.516v-18.641a.513.513,0,0,1,.34-.493l7.041-2.326a.469.469,0,0,1,.564.255.545.545,0,0,1-.125.644l-6.857,5.894v1.435l6.256-5.377a.459.459,0,0,1,.676.081.553.553,0,0,1-.074.729l-6.857,5.891v11.909a.5.5,0,0,1-.48.517A.5.5,0,0,1-14840-3035.516Zm.963-18.259v2.264l4.279-3.676Z" transform="translate(15192.74 3618.255)"/>
  </g>
</svg>
